<svg xmlns="http://www.w3.org/2000/svg" width="21" height="21" viewBox="0 0 21 21"><defs><style>.a{fill:#fff;}</style></defs><path class="a" d="M21,8.886v8.066a.82.82,0,0,1-1.641,0V9.27L10.5,1.887,1.641,9.27V19.358h8.843a.82.82,0,1,1,0,1.641H.82a.82.82,0,0,1-.82-.82V8.886a.82.82,0,0,1,.3-.63L9.975.189a.82.82,0,0,1,1.05,0L20.7,8.256A.82.82,0,0,1,21,8.886ZM17.529,19.6a.82.82,0,0,1-1.16,1.16l-3.581-3.581a4.854,4.854,0,1,1,1.3-1.022ZM10.484,16.12a3.213,3.213,0,1,0-3.213-3.213,3.217,3.217,0,0,0,3.213,3.213Zm0,0" transform="translate(0 0.001)"/></svg>