<?xml version="1.0" encoding="UTF-8" standalone="no"?>
<!-- Generator: Adobe Illustrator 19.0.0, SVG Export Plug-In . SVG Version: 6.00 Build 0)  -->

<svg
   xmlns:dc="http://purl.org/dc/elements/1.1/"
   xmlns:cc="http://creativecommons.org/ns#"
   xmlns:rdf="http://www.w3.org/1999/02/22-rdf-syntax-ns#"
   xmlns:svg="http://www.w3.org/2000/svg"
   xmlns="http://www.w3.org/2000/svg"
   xmlns:sodipodi="http://sodipodi.sourceforge.net/DTD/sodipodi-0.dtd"
   xmlns:inkscape="http://www.inkscape.org/namespaces/inkscape"
   version="1.1"
   id="Layer_1"
   x="0px"
   y="0px"
   viewBox="0 0 512 512"
   style="enable-background:new 0 0 512 512;"
   xml:space="preserve"
   sodipodi:docname="pin_four.svg"
   inkscape:version="0.92.3 (2405546, 2018-03-11)"><metadata
   id="metadata43"><rdf:RDF><cc:Work
       rdf:about=""><dc:format>image/svg+xml</dc:format><dc:type
         rdf:resource="http://purl.org/dc/dcmitype/StillImage" /></cc:Work></rdf:RDF></metadata><defs
   id="defs41" /><sodipodi:namedview
   pagecolor="#ffffff"
   bordercolor="#666666"
   borderopacity="1"
   objecttolerance="10"
   gridtolerance="10"
   guidetolerance="10"
   inkscape:pageopacity="0"
   inkscape:pageshadow="2"
   inkscape:window-width="1920"
   inkscape:window-height="1012"
   id="namedview39"
   showgrid="false"
   inkscape:zoom="1"
   inkscape:cx="89.573343"
   inkscape:cy="224.36724"
   inkscape:window-x="0"
   inkscape:window-y="0"
   inkscape:window-maximized="1"
   inkscape:current-layer="g4" />
<g
   id="g6">
	<g
   id="g4"
   style="fill:#000000">
		<path
   d="M256,0C153.755,0,70.573,83.182,70.573,185.426c0,126.888,165.939,313.167,173.004,321.035    c6.636,7.391,18.222,7.378,24.846,0c7.065-7.868,173.004-194.147,173.004-321.035C441.425,83.182,358.244,0,256,0z M256,278.719    c-51.442,0-93.292-41.851-93.292-93.293S204.559,92.134,256,92.134s93.291,41.851,93.291,93.293S307.441,278.719,256,278.719z"
   id="path2"
   style="fill:#ffffff;fill-opacity:1;stroke:none;stroke-opacity:1" />
	<path
   style="fill:#ffffff;fill-opacity:1;stroke:none;stroke-width:0.00390625;stroke-opacity:1"
   d="m 89.5609,103.72972 c 0.0045,-0.0148 0.656493,-1.32166 0.851148,-1.70605 0.570755,-1.1271 1.078008,-2.106181 1.668113,-3.219729 l 0.09677,-0.182617 h 0.187421 c 0.163897,0 0.187143,7.26e-4 0.185203,0.0058 -0.0012,0.0032 -0.06181,0.117878 -0.134636,0.254883 -0.783582,1.474073 -1.444903,2.757253 -2.194412,4.257893 l -0.298992,0.59863 h -0.181646 -0.181645 z"
   id="path836"
   inkscape:connector-curvature="0" /></g>
<path
   style="fill:#000000;stroke-width:1.08474576"
   d="m 246.07074,277.49247 c -10.8753,-0.975 -26.70737,-6.1283 -36.34622,-11.8306 -43.53296,-25.75389 -58.92989,-79.3764 -35.47584,-123.55088 27.72735,-52.22302 95.98013,-65.349614 141.74777,-27.26139 24.61374,20.48377 37.26447,55.80846 31.16281,87.01609 -9.49266,48.55133 -51.6128,80.06244 -101.08852,75.62678 z"
   id="path45"
   inkscape:connector-curvature="0" /><path
   style="fill:#000000;stroke-width:0.09587888"
   d="m 251.90924,278.58494 c -21.60586,-0.94671 -41.85241,-9.25118 -58.27835,-23.90386 -1.65811,-1.47911 -5.37452,-5.19461 -6.86723,-6.86557 -10.03314,-11.23113 -17.04017,-24.11944 -20.8768,-38.39949 -2.78163,-10.35335 -3.73435,-21.6626 -2.73813,-32.50295 0.18013,-1.96004 0.49875,-4.63706 0.62479,-5.24936 0.0448,-0.21766 0.10495,-0.26367 0.34469,-0.26367 0.25304,0 0.28355,0.0278 0.23712,0.21573 -0.0992,0.40158 -0.5389,3.94572 -0.681,5.48906 -0.66248,7.19519 -0.48113,14.49367 0.53365,21.47687 1.94932,13.41437 6.76207,26.07343 14.25251,37.48865 5.66604,8.63488 12.93843,16.45611 21.25871,22.86308 3.68758,2.83959 7.94451,5.65833 11.60135,7.68186 8.68483,4.80581 22.36584,9.3126 32.26324,10.62813 6.33442,0.84197 15.20619,0.89996 22.2439,0.14542 27.66925,-2.96652 51.81298,-17.46104 66.98821,-40.21589 2.30841,-3.46139 3.92614,-6.26339 5.86768,-10.16316 3.09481,-6.21622 5.31478,-12.14078 7.09545,-18.93608 2.03484,-7.76522 2.9144,-14.4734 2.91026,-22.19596 -0.003,-4.86448 -0.30507,-8.92828 -1.01514,-13.63877 l -0.12647,-0.83894 h 0.31238 c 0.37729,0 0.34253,-0.12661 0.65802,2.39697 2.04635,16.36851 -0.27743,33.02758 -6.70715,48.08326 -5.88136,13.77168 -15.08169,26.04498 -26.65324,35.5556 -9.86267,8.1061 -21.34474,14.15016 -33.53509,17.65256 -9.50534,2.73098 -19.7287,3.93401 -29.71336,3.49651 z"
   id="path47"
   inkscape:connector-curvature="0" /><path
   style="fill:#000000;stroke-width:0.06779661"
   d="M 253.97236,128.49267 V 93.001142 l 2.49152,6.49e-4 c 19.69894,0.0051 39.07434,6.512781 55.30735,18.576189 6.25106,4.64542 11.58078,9.7858 16.34273,15.76215 8.06825,10.12582 14.21924,22.54255 17.5174,35.3616 l 0.32995,1.28246 h -45.99447 -45.99448 z"
   id="path49"
   inkscape:connector-curvature="0" /><rect
   style="fill:#000000"
   id="rect133"
   width="239.72882"
   height="222.37288"
   x="146.44067"
   y="71.593224" /><path
   style="fill:#9a67ea;stroke-width:0.54237288;fill-opacity:1;stroke:none;stroke-opacity:1"
   d="m 251.65025,511.10052 c -4.22668,-1.13785 -6.48733,-3.10822 -15.17066,-13.22269 C 195.36874,449.99137 156.88038,396.88746 129.07686,349.69002 95.565946,292.80409 76.854947,244.97949 71.889193,203.52053 c -1.008097,-8.41657 -1.139432,-27.21072 -0.250151,-35.79661 0.339865,-3.28136 1.117637,-8.97812 1.72838,-12.65947 C 85.880492,79.639939 144.35691,19.155188 219.4858,3.9277332 c 13.56836,-2.7500954 18.96916,-3.22600074 36.61017,-3.22600074 17.73853,0 23.17816,0.48499304 36.80451,3.28146024 C 366.11205,19.008034 423.34144,76.741281 437.7389,150.0968 c 3.10634,15.8269 4.12629,36.49124 2.53796,51.41959 -5.00132,47.00647 -28.26282,102.85171 -71.09507,170.68211 -22.24043,35.22058 -53.39791,77.60274 -84.1317,114.44067 -17.34037,20.7844 -19.39456,22.80619 -24.80381,24.41257 -3.23336,0.9602 -5.16963,0.97119 -8.59603,0.0487 z"
   id="path4538"
   inkscape:connector-curvature="0" /><text
   xml:space="preserve"
   style="font-style:normal;font-variant:normal;font-weight:bold;font-stretch:normal;font-size:363.36495972px;line-height:1.25;font-family:sans-serif;-inkscape-font-specification:'sans-serif Bold';letter-spacing:0px;word-spacing:0px;fill:#000000;fill-opacity:1;stroke:none;stroke-width:1.17467213"
   x="131.94261"
   y="333.1582"
   id="text839"
   transform="scale(0.96288483,1.0385458)"><tspan
     sodipodi:role="line"
     id="tspan837"
     x="131.94261"
     y="333.1582"
     style="font-style:normal;font-variant:normal;font-weight:bold;font-stretch:normal;font-size:363.36495972px;font-family:sans-serif;-inkscape-font-specification:'sans-serif Bold';fill:#ffffff;fill-opacity:1;stroke-width:1.17467213">4</tspan></text>




</g>
<g
   id="g8">
</g>
<g
   id="g10">
</g>
<g
   id="g12">
</g>
<g
   id="g14">
</g>
<g
   id="g16">
</g>
<g
   id="g18">
</g>
<g
   id="g20">
</g>
<g
   id="g22">
</g>
<g
   id="g24">
</g>
<g
   id="g26">
</g>
<g
   id="g28">
</g>
<g
   id="g30">
</g>
<g
   id="g32">
</g>
<g
   id="g34">
</g>
<g
   id="g36">
</g>
</svg>